<?xml version="1.0" encoding="UTF-8"?><svg id="a" xmlns="http://www.w3.org/2000/svg" viewBox="0 0 531.2 574.4"><path d="M142.7927,431.66305l2.16169-1.70691c1.14312-.7477,2.08249-1.81213,3.23349-2.54525,5.18792-3.30439,10.3864-6.59304,15.62044-9.8236,1.52449-.94096,3.13252-1.97852,5.27566-.8114-.45322,2.94038-2.43654,4.48446-4.68665,5.71941-1.10915,.60875-2.40921,.86147-3.60413,1.32372-2.58079,.99846-5.0776,2.05607-5.57592,5.31402-.09699,.63417-.74833,1.20596-1.20144,1.75949-2.89147,3.5324-5.78783,7.06098-8.70459,10.57254-2.86365,3.44757-6.1939,6.15571-10.70743,7.2496-1.24114,.30081-2.40912,1.22339-3.41773,2.08625-1.39047,1.18946-2.54519,2.65005-3.89371,3.89388-3.58387,3.30559-7.01252,6.82848-10.88727,9.75618-4.11414,3.10857-6.55496,7.40356-9.34246,11.47153-1.12581,1.64299-2.00045,3.24771-4.29275,3.32787-.56922,.01993-1.17119,.49057-1.67193,.86828-5.20614,3.92672-11.11116,6.34542-17.36223,7.96126-1.46399,.37847-3.04189,.31625-4.56739,.45676-.14979-.29115-.29957-.58227-.44936-.87339,.80196-.85455,1.4671-1.93608,2.43311-2.51847,2.32916-1.40418,4.7545-2.67043,7.22094-3.82102,6.09993-2.84578,11.51663-6.67088,16.2274-11.43393,4.10822-4.1538,8.00479-8.51705,11.99155-12.79087,.54656-.58591,1.07395-1.18973,1.61036-1.78512,5.13868-5.70371,10.13079-11.5489,15.45838-17.07033,5.04856-5.23219,10.43187-10.14279,15.70159-15.15944,2.54898-2.42656,5.12318-4.83176,7.77719-7.14182,5.39618-4.69694,11.27239-8.68745,17.75392-11.75912,1.46802-.69572,2.89748-1.47283,4.29576-2.51245-3.1793-1.47028-6.46732-2.01031-9.78159-2.21687-6.05913-.37762-11.95125,.80905-17.7891,2.27865-8.15281,2.05232-16.27815,4.22078-24.46355,6.13267-2.54301,.59395-5.24036,.55964-7.87281,.71524-.65569,.03875-1.33383-.30257-2.38043-.56363,.36212-1.11036,.43259-2.1308,.95836-2.78572,1.49392-1.86096,2.95286-3.86068,4.81946-5.2921,7.11848-5.45894,14.37152-10.74375,21.61986-16.03112,2.20133-1.60583,4.22744-3.46903,4.90137-6.06293,1.67269-6.43788,6.31637-10.27881,11.4504-13.65628,6.36514-4.18738,12.89237-8.11433,20.45345-9.88783,1.36147-.3193,2.64469-.97224,3.96523-1.46593l.44857,.47057c-.32352,.70805-.48494,1.57532-.99777,2.09738-2.10836,2.14624-3.58843,4.4237-4.33616,7.52446-.53192,2.20583-1.60493,4.26769-1.32231,6.64596,.07536,.63411,.15007,1.27062,.27511,1.89604,.42422,2.12203,.87085,4.23962,1.50851,7.32448,1.7332,1.74986,4.22479,4.26542,6.68643,6.75075,1.01181,2.33395-.34705,5.24669,1.5552,7.43235,.49644-.31537,.73313-.3859,.74603-.48547,.4719-3.64053,2.55284-6.436,4.66271-9.27057,1.1844-1.59121,1.94149-3.49301,2.99677-5.18913,4.32279-6.94783,9.88363-12.80816,16.37895-17.70582,2.58437-1.9487,5.70517-3.18592,8.82505-4.87907,.82374,.52621,1.70053,1.08632,3.05143,1.94929-4.27708,1.29801-6.36543,4.32481-8.80536,7.0471-2.12667,2.37282-4.84485,4.21012-7.02255,6.54446-1.38129,1.48064-2.37298,3.37689-3.29534,5.20959-.40756,.80984-.20989,1.92425-.30244,3.09598,.77757-.0666,1.21525,.01312,1.52734-.14897,3.16849-1.64569,6.3776-2.57283,10.08296-2.078,3.62303,.48388,7.33082,.33063,11.00107,.46642,.3988,.01474,.84477-.01019,1.18541,.15519,4.74198,2.30221,9.87982,2.58674,14.98313,2.92794,4.05719,.27126,8.12169,.38429,12.1871,.46641,2.24079,.04527,4.48204,.19524,6.72319,.19678,4.39658,.00302,8.79425,.00751,13.18933-.08724,2.52659-.05445,5.04725-.35226,7.57407-.43783,1.10007-.03728,2.20886,.18337,3.34946,.29024l1.00206,2.35882c10.09872,.36359,20.40517-.23608,30.74158,2.08821-.75079,.93054-1.27022,1.57436-1.96128,2.43088,5.58973,2.15385,11.73531,.539,17.03886,3.27474-1.5874,3.64596-4.666,1.74637-6.95114,2.38893-.08879,2.90087,3.12698,1.58305,3.83065,3.45726-3.80027,3.03569-8.38315,4.24268-12.74515,5.02469-1.63022,1.79222-.51844,3.12469,.0941,4.35055-1.39972,2.64275-3.51694,3.97272-6.18597,4.71493-7.68646,2.13761-15.49992,3.2008-23.47811,3.20388-2.71861,.00106-5.43639,.29077-8.15585,.42174-2.88063,.13872-4.13755,.77638-3.96367,2.42668,.33669,3.19528,.40379,4.41735,3.38304,5.27721,4.97572,1.43602,9.88319,3.12983,14.75668,4.88885,2.06867,.74665,2.14951,1.42103,1.38369,2.96069-2.29935,.77418-4.29165,1.23622-6.09516,2.09488-4.14732,1.97451-8.3015,1.33012-12.51947,.31175-1.22798-.29648-2.46328-.56489-3.7079-.78111-1.52295-.26457-3.10887-.45012-3.85877,1.40055-.53552,1.3217,.85114,2.65346,3.12613,3.20682,1.0116,.24606,2.04138,.44464,3.02225,.78269,1.18768,.40927,2.33234,.9434,3.73943,1.52417-.23511,1.71135-.44629,3.24865-.73875,5.37734,1.40172-.83529,2.47258-1.47342,3.54345-2.11158,8.74561-1.45598,14.24896-7.21235,18.34859-14.26735l3.88495-1.15124c.62572,.43868,1.26133,.88431,2.25288,1.57947,.1587-1.12618,.28043-1.99015,.45836-3.25293,.93547-.55767,2.0397-1.33628,3.24174-1.91007,3.61709-1.72656,6.04016-4.62224,8.06122-7.95087,.54013-.88959,1.13626-1.74564,1.71863-2.60902,.97917-1.4517,2.24543-1.97503,4.40862-.98886,.57488,1.95842,1.04897,4.31189,1.96136,6.481,.9785,2.32624,2.38341,4.47148,3.57653,6.70945,1.56547,2.93642,3.23963,5.8257,4.60815,8.85235,.85994,1.90182-.66634,4.24409-2.76319,4.44958-1.06209,.10406-2.2063-.17421-3.25477-.48039-2.26492-.66135-4.49203-1.45223-7.01372-2.28197-.48609,3.26174,2.31793,2.93296,3.63517,4.42728,.07582,.352,.22422,1.04126,.41371,1.9212,.58897,.62087,2.45397,.7069,1.46101,2.52877-.74565,.43918-1.55978,.91871-2.39004,1.40773-.15947,.84994-.3047,1.62388-.46208,2.46278-1.15822,1.33499-2.86311,2.60852-.97245,4.74919-.82135,1.347-.77412,2.52812-.15269,4.15697,.72041,1.88847,.35116,4.2356,.26622,6.37612-.08213,2.06896-.43214,4.12591-.61583,6.19243-.60136,6.76619-1.19135,13.53347-1.75878,20.30257-.10681,1.27406-.18001,2.56434-.09683,3.83591,.05172,.79097,.42666,1.5608,.70773,2.51359,3.82208-.78378,6.55897,.83655,9.25466,2.83175,.86476,.64001,2.18086,.73446,3.31627,.92335,.83896,.13954,1.71977,.02739,2.47828,.02739,1.34912,1.77614,1.9739,4.1201,4.74821,3.76845,1.15965-2.08675,.21688-4.1176-.07041-6.10012-.92954-6.41452-1.94631-12.81682-2.97781-19.21602-.77609-4.81462-1.663-9.61147-2.42412-14.42829-.26731-1.6916-.30702-3.41913-.45064-5.13025,.26731-.0538,.53464-.10764,.80195-.16147,.41808,1.45199,.99752,2.87904,1.22652,4.36026,1.0143,6.56157,1.89374,13.1439,2.88858,19.70858,.82689,5.45653,1.76776,10.89574,2.61623,16.34913,.41741,2.68272,.6902,5.38849,1.13274,8.06658,.15063,.91134,.62055,1.76997,.92384,2.59613,5.87972-1.48261,11.5447-2.91109,17.42237-4.39323,.5106-2.91496-1.27116-5.08173-3.55636-7.04337,.15771-.18055,.31541-.36113,.47309-.54168,.49572,.15076,1.13664,.15548,1.46133,.47824,1.22781,1.22075,2.45559,2.46804,3.48853,3.85093,1.09611,1.46746,2.32756,2.08528,4.53025,1.34312-.30555-1.13683-.50138-2.27243-.91099-3.32479-3.08674-7.93064-6.19528-15.85301-9.34224-23.75997-1.10174-2.7682-2.43398-5.4474-3.47024-8.23809-.92129-2.48116-1.49165-5.09129-2.37968-7.58654-.73811-2.0738-1.70554-4.06656-2.58538-6.08911-.58466-1.34406-.69044-2.46493,1.52361-2.93222,.69358,1.76363,1.42041,3.49401,2.05975,5.25614,4.88581,13.46619,9.74231,26.94304,14.65551,40.39919,.33749,.92426,1.05927,1.70824,1.55898,2.48964,5.04355-1.28809,6.09801-6.644,10.20803-9.10473,1.68772,1.39499,3.35794,2.77551,5.48964,4.53747,2.01731-.11001,4.60562-.25111,7.85379-.42823-.56484-1.42208-.78334-2.4779-1.34257-3.30263-6.24846-9.21433-12.55537-18.38903-18.83327-27.58349-2.21305-3.24113-4.41519-6.49048-6.56194-9.77555-.43047-.65876-.58727-1.49646-.87025-2.25165,.2302-.1735,.46044-.34698,.69067-.52048,.60326,.55509,1.33811,1.02007,1.78945,1.67921,4.48138,6.54458,8.87045,13.15259,13.37654,19.67991,4.45743,6.45684,9.00702,12.85025,13.55294,19.24531,.52011,.73171,1.27665,1.29531,2.22641,2.23715,1.11712-3.16085,1.23638-6.42262,4.31851-8.13952,.48418,.69223,.88137,1.26011,1.44874,2.07128,.89-.27187,1.84143-.56249,3.01767-.92179,2.47851,.59122,5.1442,1.29046,7.83956,1.84576,1.54886,.31909,3.404-.91572,4.22121-2.62469,.73441-1.53571,.18697-2.78778-.92977-3.89981-6.47098-6.44322-12.92699-12.90153-19.41223-19.33032-5.17766-5.13259-10.40289-10.21722-15.56866-15.36168-.58812-.5857-.92833-1.42032-1.48892-2.30604,1.86483-.69463,2.51544,.40475,3.25287,1.1341,6.38063,6.3107,12.72411,12.65896,19.10612,18.96822,4.3883,4.33825,8.81635,8.63634,13.24002,12.93867,.38592,.3753,.87198,.64767,1.48053,1.09095,.29763-.80289,.53238-1.43623,.86658-2.33777,2.35016-.62821,4.83791-1.29319,7.6776-2.05223,.87902,.35282,2.09979,.99518,3.39968,1.33347,2.85952,.74418,4.65488-.20004,5.90429-2.94294,.52598-1.15465,.99173-2.33674,1.63494-3.86226-1.30644-1.07346-2.50111-2.22535-3.85557-3.14077-9.68475-6.54537-19.40607-13.03662-29.10176-19.56584-.84544-.56936-1.59036-1.288-2.55104-2.07597,1.60019-1.17076,2.78835-.76461,4.04885,.11606,6.63247,4.6336,13.28977,9.23162,19.93783,13.84291,1.51369,1.04995,3.11899,1.99314,4.51428,3.18237,1.89882,1.61836,4.07207,1.40896,6.30969,1.4883,3.50332,.12419,6.99276,.60634,10.49582,.78404,2.40619,.12208,4.3451-.88681,5.59125-3.0263,.40634-1.77147-.79517-2.66626-1.92227-3.57208-1.76371-1.41759-3.41374-2.85931-1.9837-5.51776-9.08603-3.72586-17.99061-7.29721-26.64568-11.41546l.22137-.88965c.76573,.06698,1.59955-.04001,2.28617,.22892,4.76544,1.86634,9.50526,3.79848,14.24291,5.73503,2.52034,1.03022,5.00674,2.14395,7.53213,3.16126,3.09349,1.24608,4.06209,.91589,6.03038-1.90388,2.43683-3.49095,2.42444-3.52679-1.48205-5.48641-.27147-.1362-.48876-.38038-.80796-.63569,.56364-.86414,1.08512-1.66367,1.60663-2.46326l-.45706-.65082c-1.24157,.2934-2.48833,.58803-4.01162,.94803,.35695-2.48794,2.24015-4.02655,3.79481-6.22745-17.35037-4.76592-34.56387-9.49427-51.77737-14.22261,.03895-.32074,.0779-.64145,.11688-.96218,1.23095,0,2.52955-.25863,3.68166,.04277,6.50617,1.70187,12.97198,3.55744,19.46169,5.32339,6.85901,1.86642,13.73131,3.68406,20.59396,5.53731,3.1629,.85414,6.30728,1.7786,9.48014,2.59308,.95724,.24577,1.98188,.22916,3.56232,.39383-.21752-3.00035-.403-5.55833-.58427-8.05851-2.31238-.96532-4.26764-1.78159-6.71642-2.80389,1.39505-2.0684,2.68212-3.97665,4.16796-6.17966-.06325-.17403-.27599-.75953-.61856-1.70231-1.5643-.30677-3.24112-.81959-4.94569-.94002-11.10102-.78451-22.2112-1.44137-33.30988-2.25602-1.69837-.12466-3.35269-.8492-5.02741-1.29628,.00106-.1979,.00211-.39579,.00314-.59372,1.50856-.07508,3.02695-.29881,4.52394-.1996,6.5514,.43422,13.09373,1.00519,19.64487,1.44351,6.39434,.42782,12.79523,.75865,19.1943,1.11291,.27811,.01538,.56681-.16074,1.48848-.44299-2.06066-1.71684-3.76623-3.13787-5.91905-4.9315,.74348-1.54023,1.63019-3.37718,2.70637-5.60661-1.18915-.09437-2.00988-.22886-2.82791-.2141-12.49992,.22575-24.99934,.48147-37.4995,.69214-1.01281,.01705-2.03028-.24284-3.30535-.40759,.81057-1.9005,2.04763-1.59206,3.07996-1.61235,9.13394-.17979,18.26875-.31707,27.40269-.49703,3.28457-.06472,6.5681-.19813,9.85064-.33494,.51136-.02131,1.01498-.2291,1.52218-.35068,.08386-.22549,.16769-.45098,.25154-.67646-1.5665-.90213-3.13299-1.80428-4.75532-2.73855-1.01956-2.18511-2.09788-4.49608-3.30083-7.07413,.03954-.63649,.09789-1.57636,.17902-2.88338-4.60463,.85211-9.01985,1.62884-13.4176,2.49416-4.54783,.89488-9.05571,2.01281-13.62368,2.77944-4.34793,.72974-8.38524,3.07431-12.8773,3.01841l-.22864-1.03274c5.04399-2.32529,10.558-3.28129,15.8962-4.65228,5.34531-1.37286,10.82412-2.22573,16.24443-3.30659-.00332-.21501-.00663-.43005-.00995-.64506-.37068-.21592-.73758-.612-1.11257-.61978-3.65378-.07602-7.31143-.0182-10.96237-.15187-1.3918-.05096-2.88145-.25029-4.13027-.81557-2.90267-1.31371-5.76043-1.44642-8.89234-.93999-5.4754,.88543-10.74449,2.35333-15.8566,4.45598-.44262,.18205-.9593,.28322-1.30785,.57936-2.92052,2.48163-6.60876,2.69678-10.10453,3.30142-3.71929,.64332-7.508,.88566-11.26639,1.30309,.00041-.2566,.00082-.76082,.00124-1.01806-2.08577-.45106-4.16431-1.23796-6.25882-1.28307-4.31743-.0929-7.91974-2.15574-11.73395-3.67038-1.38836-.55134-2.75185-1.16537-4.16934-1.76897-.06685-2.63328-2.28477-3.1326-3.98046-3.54109-6.00951-1.44767-11.19575-4.69895-16.76669-7.10386-6.75368-2.91547-13.70315-5.37571-20.55184-8.0737-2.81932-1.11066-5.60575-2.30693-8.38282-3.51999-.39181-.17117-.6446-.66057-1.28108-1.3471,3.56082-1.13659,6.83857-2.18278,10.042-3.20529-.71722-1.5529,3.56699-6.42661,4.39385-9.93524-1.77214-3.45102-3.48561-7.18434-7.92989-8.48209-.65131-2.50152-2.51913-3.64081-4.63563-4.60079-4.39497-1.9934-8.94647-2.972-13.78898-2.5709-1.57685,.13062-3.17365,.02051-4.78042,.02051-.42197-.66846-.80017-1.26756-1.16-1.83756-.20685-.04196-.37766-.13218-.51646-.09678-5.1015,1.30137-10.25241,2.44378-15.27967,3.9885-3.11763,.95789-5.98108,2.72447-9.07991,3.76772-2.93773,.98902-6.03083,1.52035-9.06502,2.21171-.25022,.05706-.57245-.20201-1.35233-.505,.64659-.9437,1.06724-1.8413,1.73331-2.48483,5.27845-5.0999,9.44927-11.0976,12.13821-17.79716,2.85513-7.11355,6.48342-13.74872,9.97508-20.51875,3.51812-6.82129,6.21283-14.08299,9.03392-21.24406,3.3226-8.43404,6.37243-16.97519,9.57886-25.45545,3.53497-9.34918,9.23582-17.56926,13.82191-26.37089,.78669-1.50981,1.47918-3.06714,2.12361-4.64293,3.0367-7.4255,5.99597-14.88275,9.04812-22.30183,.42628-1.03621,1.23986-1.91306,1.86751-2.8664l.90704,.17923c.41242,2.23878,.82486,4.47744,1.26259,6.85348,2.27388-.56292,3.36788-2.13008,4.1501-3.71652,2.58946-5.25181,5.14573-10.5313,7.41458-15.92641,1.86232-4.42843,3.45636-8.98787,4.86449-13.58267,.93531-3.05205,1.21481-6.29847,1.99312-9.40649,3.1851-12.71907,5.38389-25.59768,6.55456-38.65732,.24357-2.71759,.65437-5.42148,1.03497-8.12508,.28456-2.02148,.61041-2.43095,2.69547-3.44315,.27582,1.00176,.72057,1.92048,.75671,2.855,.40485,10.47491,1.59993,20.98331-1.32526,31.33052-.52244,1.84802-.87453,3.73765-1.17542,5.63438-.298,1.87853-.94147,3.83801,.53861,5.65059,2.10484-.20281,3.01293-1.81921,3.7095-3.36433,2.1739-4.82238,4.40388-9.63949,6.20191-14.60714,3.86-10.66468,6.96097-21.58521,8.93314-32.74697,1.67413-9.47508,2.87317-19.05039,3.86136-28.62483,.69103-6.69534,.60249-13.468,.99357-20.19849,.28851-4.9652,.75003-9.9218,1.22037-14.87407,.13232-1.39356,.30378-2.90487,2.20565-3.74408,.556,.7071,1.26848,1.34787,1.65456,2.14645,2.89026,5.97813,4.51157,12.31547,5.62043,18.85759,1.68831,9.96095,.11346,19.67954-1.65944,29.40256-1.02182,5.60392-2.15051,11.19224-3.4066,16.7479-.61635,2.72609-1.87704,5.3131-2.42153,8.0476-1.60713,8.07048-4.94202,15.58753-7.22126,23.43681-.26041,.89693-.16628,1.89682-.23651,2.84897,.25779,.08845,.5156,.17691,.77339,.26536,.49012-.62823,1.00649-1.23796,1.46486-1.8886,.90827-1.28925,1.88472-2.54466,2.65522-3.91409,2.31481-4.11412,4.52223-8.28853,6.81618-12.41461,1.1178-2.01061,2.34094-3.96246,3.50426-5.94802,.56648-.96685,1.24865-1.89663,1.63432-2.93398,4.477-12.04151,9.15244-24.01723,13.27708-36.17937,3.69737-10.90222,5.57273-22.26916,7.14499-33.66038,1.08679-7.87392,2.06326-15.76312,3.16279-23.63519,.21215-1.51902,.18069-3.26826,2.1649-4.3109,.53346,.62695,1.24924,1.18001,1.58538,1.9083,2.98792,6.47379,5.94731,12.83781,6.40777,20.2597,.52411,8.44752-.61261,16.62648-1.97949,24.85297-.60279,3.62776-.89983,7.33106-1.81895,10.8747-.96141,3.70664-2.54809,7.24769-3.76943,10.89197-.49604,1.47997-.75771,3.0394-1.10877,4.56664-.18888,.82169-.18161,1.70903-.59299,2.44372-2.35721,4.20976-4.14455,8.70369-5.34924,13.37565-1.09273,4.23776-2.51972,7.56116-5.78654,10.10826-1.7744,1.38349-3.17809,3.37955-4.37699,5.33027-1.575,2.56269-2.78693,5.34853-4.11882,7.96728,1.29776,1.31101,2.01371,.34228,2.54921-.34882,2.21077-2.85296,4.38631-5.73663,6.47777-8.67804,7.36591-10.35942,13.94513-21.23404,19.47961-32.64559,4.79449-9.88583,8.96509-20.0979,12.95271-30.34431,3.52086-9.04693,6.38558-18.34833,9.59551-27.51793,.61815-1.76571,1.05051-3.73731,3.36276-4.86254,.56851,.83937,1.38288,1.58267,1.63131,2.48226,1.7579,6.36602,2.63086,12.83129,2.3159,19.47489-.83286,17.56731-8.17929,32.99124-15.65872,48.3929-1.47281,3.03279-2.7121,6.17894-4.18305,9.21271-1.43373,2.95698-3.04409,5.82787-4.53606,8.75737-.34862,.68455-.53223,1.45314-.79175,2.18307,.16645,.19096,.33294,.38194,.49939,.5729,.78086-.4734,1.72962-.79594,2.31387-1.44605,2.6812-2.98353,5.41434-5.94081,7.84959-9.12134,10.34527-13.51129,20.59512-27.09566,30.87098-40.66,2.80805-3.7067,5.53454-7.47678,8.41436-11.12635,.6747-.855,1.82054-1.33818,2.84295-2.05814,.40591,.65761,.71419,.9232,.70698,1.1799-.14421,5.11614,.12208,10.29483-.59446,15.33288-1.34172,9.43326-6.41018,17.36228-11.18269,25.3866-3.15005,5.29641-7.06899,9.91175-11.26537,14.36752-1.38998,1.47591-2.30666,3.3976-3.54354,5.27286,.84816,.75965,1.40922,1.26213,1.8919,1.69443,.53388-.07293,.8551-.08936,1.16264-.16298,4.01577-.96128,5.91776-.07211,6.83168,3.9752,.62303,2.7591,.96662,5.78897,.50336,8.54089-.8641,5.13271-2.35718,10.16427-3.68749,15.21183-.69683,2.64391-1.97272,4.89264-4.76433,5.97022-.78133,.30158-1.44265,1.0084-2.05876,1.62889-5.0092,5.04485-10.73085,8.92427-17.62285,10.9321-.44134,.12859-.83992,.40397-1.69658,.82789,3.10235,1.83156,5.84661,3.89656,9.12228,3.93462,2.05744,.02392,4.28733-1.11926,6.16496-2.21144,3.52626-2.05108,6.8649-4.42344,10.29241-6.64691,.42645-.27664,.87561-.52448,1.35313-.69874,4.8039-1.75313,8.5106,.39115,8.64087,5.20199,.06797,2.51039-.83856,5.03999-.83871,7.56096-.00026,4.42622-2.65407,6.52839-6.20865,8.15469-.8835,.40422-1.55272,1.27676-2.20456,1.83484,.71266,1.64906,1.30853,3.02789,1.83452,4.24499,1.791,2.07419,3.65079,3.94135,5.12363,6.07556,.58531,.84809,.61653,2.35621,.37136,3.44478-.59784,2.65447-1.49111,5.24353-2.29466,7.8499-.25852,.83863-.6082,1.64916-.91645,2.47336,.35642,.6969,.6767,1.32313,1.08897,2.12917-1.36061,1.10804-2.68315,2.18508-4.09036,3.33108,.78875,1.10799,1.42623,2.00351,2.14424,3.01211-.51637,.6284-.99372,1.20933-1.44315,1.75627,3.20451,7.23653,2.39379,11.60335-3.29433,17.21899-1.45803,1.43945-2.50417,3.21349-3.17256,5.15027-.7334,2.12516-2.1744,3.98788-3.15333,6.03888-.51045,1.06942-.69091,2.29636-1.02035,3.45218,.15554,.05869,.31104,.11738,.46658,.17605-.42859,.65548-.85719,1.31096-1.23709,1.892,.23066,1.31114,.56027,2.48722,.62182,3.67717,.13629,2.63337-.4273,5.04177-2.16669,7.19477-1.89725,2.34846-3.55475,4.89064-5.38936,7.4496,.90933,1.15227,1.57403,2.03256,2.2783,2.87996,2.12906,2.56175,2.44048,5.09643,.80964,8.02253-1.59921,2.86928-3.37503,5.64139-4.93149,8.5325-.57516,1.06829-.74623,2.35412-1.01152,3.24004-.67464,1.66751-1.26207,3.04356-1.78909,4.44233-.59437,1.57762-.98769,3.24878-1.73359,4.74724-1.0252,2.05952-2.0555,4.03511-.66105,6.46413-.94988,.57471-1.67657,1.01441-2.56395,1.55134-2.07456,4.40293-4.68983,8.77079-5.50003,13.9168-.94364,2.02791-2.06579,4.08858-2.8797,6.26459-1.50523,4.02411-3.52424,7.57141-7.51259,9.6326-2.06173,1.06553-4.17155,1.61193-6.50163,.98666-1.86053-.49926-3.75219-.88173-5.6269-1.32909-2.82215-.67343-5.63882-1.35681-8.54845-.46545-4.6516,1.42499-8.69401-.06777-12.49107-2.65479-5.15726-3.51372-10.70334-6.09657-16.84628-7.40038-1.94951-.41378-3.78064-1.35904-5.71606-1.87228-2.15451-.5713-4.35621-.7437-6.58319,.0981,.40361,2.90956,3.45807,2.9369,4.6868,4.96834-.17937,.59798-.40862,1.26824-.58054,1.95291-.52781,2.10207,.22401,3.4941,2.0836,4.54915,2.01686,1.1443,3.96819,2.42222,5.84826,3.78005,.66855,.48278,1.13719,1.32226,1.53701,2.08306,1.52053,2.89326,2.9708,5.82336,4.45826,8.73409,.43836,.85781,.8872,1.7123,1.37612,2.54189,.94479,1.6031,.52208,2.90635-.8089,4.04503-1.3424,1.14836-2.76186,2.22159-3.99968,3.47391-2.10034,2.12496-1.55466,3.95931,1.28879,4.68094,6.26091,1.58889,6.89447,2.56722,4.26247,8.43878-1.89546,4.22844-4.26885,8.2504-6.56942,12.28442-.6456,1.13209-1.78768,1.98098-2.80485,3.06984,2.31984,1.8355,4.46882,3.12192,7.54496,3.26646,12.44806,.58477,24.17375-2.60671,35.88704-6.12825,3.20436-.96337,6.47505-1.69453,9.78137-2.20861,7.79645-1.21223,14.99691-4.30401,22.37809-6.83166,2.63345-.90181,6.89525-2.4962,9.44675-3.60892,9.72909-4.2429,19.39487-8.63267,29.15653-12.79827,2.63089-1.12267,5.49697-1.84886,8.32782-2.31075,3.89425-.63538,5.89022,1.13532,6.27848,5.06803,.11037,1.11781-.03487,2.27824,.19741,3.36345,.78816,3.68283-.97609,5.97369-3.935,7.71883-.80858,.47687-1.54313,1.07918-2.2123,1.55349,.25143,2.58094,.79681,3.14087,2.95029,2.95196,2.31781-.20336,4.65652-.37309,6.92961-.83548,3.70232-.7532,7.17827,.14104,10.67094,1.08995,.36189,.09834,.66237,.42273,1.45718,.953-1.65836,5.67991-4.56204,11.00159-6.70887,17.05279,1.10082,.26215,2.03775,.5396,2.99419,.70377,4.42301,.75932,8.86917,1.39774,13.26911,2.27079,1.72791,.34289,3.36638,1.17387,4.01113,3.53123-.44619,.72922-.99066,1.68278-1.59651,2.59568-1.15385,1.73872-2.52431,3.36071-3.47225,5.20233-1.26742,2.46223-2.90642,4.39122-5.48605,5.49026-.63198,.26927-1.17268,.75259-1.79471,1.16345,.57595,1.82082,1.97679,2.14173,3.36661,2.55348,2.84321,.84233,5.71297,1.62891,8.48262,2.6748,2.10325,.79425,4.0299,1.99672,4.89527,4.19007-.0605,.37641-.01342,.692-.14895,.83686-2.67385,2.85918-5.00679,6.23996-8.17961,8.36266-2.34441,1.56847-5.78318,1.52112-8.74538,2.14082-3.29447,.68926-6.61427,1.26276-9.89414,2.013-.81671,.18678-1.52661,.84059-2.2833,1.28979l.04137,.6687c1.00364,.39254,2.00195,.79933,3.01167,1.17549,5.49123,2.04557,11.05769,3.91367,16.44235,6.20868,2.13079,.90822,4.05791,2.5644,5.71156,4.24115,1.45927,1.4796,1.16479,3.03109-.43554,4.41294-2.06365,1.78195-4.06491,3.76001-6.42698,5.03487-2.03246,1.09698-4.51775,1.39603-6.83301,1.91274-1.43238,.31966-2.92132,.38585-4.38478,.56627l-.18832,.68301c.70593,.54345,1.40408,1.09734,2.11878,1.62898,2.4406,1.81526,4.91787,3.58337,7.31112,5.45883,.67417,.5283,1.12931,1.34751,1.64929,2.05934,3.4769,4.7596,.7465,7.82108-2.97404,9.65114-5.29283,2.60339-11.25853,.53003-16.64718,.21203-2.2625-.13352-4.49705-.5081-6.6875-1.09008-.82867-.22017-1.521-.10034-3.06001-.10034,.72566,1.10987,1.15264,1.79648,1.61237,2.46044,2.54347,3.67373,5.30968,7.21713,7.55343,11.06458,1.05182,1.8036,1.6158,3.8694,1.58766,5.9571-.06724,4.98824-2.3834,7.22717-7.28648,8.44638-2.96062,.7362-6.07135,.51051-8.97157-.43605-1.82909-.59698-3.69951-1.10014-6.01424-1.78363,.15657,1.44297,.15754,2.3691,.36901,3.24433,.97986,4.05542,.30743,7.79745-1.94136,11.29449-.99704,1.55043-1.89737,3.16294-2.89056,4.71602-1.451,2.26911-3.67501,3.29136-6.24075,3.63716-5.01491,.6762-9.28717-1.14877-13.28818-3.95967-.78637-.55249-1.80665-.77195-2.97145-1.24817-.12782,1.08315-.28583,1.56202-.22201,2.00929,1.09453,7.6688-4.06765,12.14848-8.79767,16.66375-1.09564,1.0459-3.45471,1.17072-5.19022,1.05973-3.57803-.22881-6.54512-2.06855-9.07699-4.55182-2.86793-2.8129-5.6713-5.69159-8.54062-8.50302-.66587-.65247-1.50106-1.13207-2.24924-1.70045l-.59472,.32212c.12304,2.17756,.02208,4.39652,.41515,6.5242,.79275,4.29076-.49533,7.68687-3.63058,10.61835-2.57457,2.40724-4.84672,5.14681-7.48888,7.47071-3.12654,2.74993-6.96403,2.56543-9.86713-.50418-3.59089-3.79677-6.83386-7.87884-8.84178-12.81926-.68632-1.68867-1.10865-3.71373-3.69967-4.70348-.10687,1.39288-.25855,2.5177-.26832,3.64375-.04464,5.14245,.15563,10.32569-1.78041,15.22302-.60882,1.54013-1.32365,3.30495-2.539,4.28835-3.60678,2.9183-7.36515,5.69471-11.30327,8.14191-2.61847,1.62705-6.08216-.08063-7.92786-3.45737-.53414-.97722-.85025-2.07667-1.23791-3.13057-2.87835-7.82458-4.01157-16.02663-5.2581-24.20756-.29204-1.91654-.78148-3.803-1.18006-5.7033-.26785-.01671-.5357-.03337-.80352-.05008-.34741,.72269-.83265,1.41283-1.0129,2.17507-.35047,1.48198-.61211,2.99616-.76603,4.51163-.72402,7.12861-3.31768,13.71674-5.85991,20.3111-2.072,5.37462-5.60916,9.04486-11.63815,9.95087-1.91146,.28725-3.71244,1.31002-5.56396,1.99616h-1.92835c-.16613-.26895-.26741-.66372-.50819-.78795-3.50011-1.80572-3.72686-4.79094-3.28055-8.24325,.70874-5.48232,1.0553-11.01136,1.76231-16.49391,1.29346-10.03049,2.74414-20.04074,4.10755-30.06234,.09554-.70233,.01251-1.42896,.01251-2.12393-.98015-1.27895-2.29074-1.61699-3.68569-1.24352-2.21603,.59333-3.88204-.25906-5.49785-1.6274-3.29861-2.79336-6.81865-5.34914-9.92854-8.33505-3.50868-3.36877-7.16194-6.72501-8.99587-11.44068-1.4648-3.76654-1.2816-7.5799,.01062-11.33272,.63042-1.83085,2.30591-3.09994,4.22956-3.32142,3.6997-.42596,7.41786-.69366,11.12871-1.02254,2.15898-.19132,4.32805-.29979,6.47618-.57412,2.90586-.37114,3.70105-1.34092,3.9393-4.86618-10.30299-8.39808-23.15763-11.60967-35.55848-16.23876-.91271,1.03907-1.71194,1.91448-2.47276,2.82211-1.76199,2.10204-3.98885,3.04342-6.74161,3.15685-1.65303,.06812-3.28473,.65495-4.86022,1.31956-1.90843-.2288-3.65413-.12315-4.79558,1.83082-.11831,.20253-.30477,.3573-.5302,.42208-3.42947,.98552-6.27476,3.40244-10.11724,3.54194-2.96256,.10752-5.89153,1.1403-8.86092,1.76715-1.64597,5.62412-4.59715,9.80571-9.41767,12.37632,.18189,.98446,.30907,1.67293,.4521,2.44702-.68751,.3569-1.30915,.67958-2.14499,1.11346-.60666,3.64008-3.44129,5.05079-6.75409,5.73843-3.76533,.78163-7.56845,1.3812-11.48045,1.72389l-1.59549,1.45415h-1.06562c-7.70111,7.3229-16.32158,10.21646-26.94779,7.9393-.40743,.37075-1.17904,.93418-1.781,1.64193-7.04464,8.28232-16.40701,13.20167-25.9387,17.85736-.63938,.31231-1.5639,.0408-2.86177,.0408,.67694-2.731,1.24437-5.02026,1.81186-7.30964l-.69299-.51006c-1.18304,.73203-2.41919,1.391-3.54209,2.20592-2.26452,1.64364-4.40528,3.46363-6.71535,5.03723-2.78964,1.90036-3.79506,4.40145-3.15452,7.66312,.21581,1.09885,.35405,2.21414,.49575,3.32596,.28012,2.19811-.51606,3.83664-2.36623,5.13297-1.52414,1.06797-2.85338,2.41409-4.58329,3.90838-.40744-1.00973-.81161-1.611-.88087-2.24854-.42495-3.91149-3.35718-5.65616-6.35102-7.22917-.65271-.34296-2.00522-.08107-2.63946,.41182-1.55933,1.2118-2.87989,2.72887-4.31316,4.10575-.72871,.70001-1.49326,1.36275-2.24175,2.04219l-.85105-.44093c.20865-1.72031,.41731-3.44062,.62596-5.16087l-.65616-.30521c-.45122,.44387-1.00626,.82176-1.3373,1.34213-2.77807,4.36704-5.31466,8.90369-8.32282,13.1036-2.79786,3.90621-6.37572,7.01184-10.59264,9.57152-5.93768,3.60422-11.48388,7.85298-17.20379,11.81701-.5573,.38622-1.15886,.70852-1.76046,1.07296-1.41956-1.45331-.87598-2.44726,.22249-3.39629,2.12168-1.83302,4.22796-3.68395,6.35275-5.51327,3.51367-3.02521,5.52685-7.01601,7.18055-11.22203,.26683-.67872,.20338-1.48725,.29798-2.23359l-.4875-.35126c-.78452,.41617-1.60858,.77295-2.34415,1.26263-.99594,.66302-1.8442,1.58288-2.89417,2.1242-7.65907,3.94859-15.30513,7.92865-23.06154,11.67893-2.71817,1.31436-5.71131,2.09103-8.62782,2.94643-.9666,.28355-2.08639,.04473-3.13615,.04473-.12108-.27351-.24215-.54702-.36323-.82047,.87269-.79493,1.61811-1.8703,2.6409-2.33437,3.71029-1.6835,7.47533-3.26526,11.29579-4.67994,2.39713-.88757,4.00605-2.43898,5.56115-5.04597-1.67066-.33879-3.01893-.87571-4.34793-.83162-3.77154,.1251-7.36223,.85188-10.82425,2.67462-3.65623,1.92507-7.5537,3.53278-11.51662,4.69808-4.76482,1.40112-9.33028,.90947-13.02411-3.12583-.72823-.79564-2.25814-1.06369-3.45769-1.18456-4.30525-.43378-8.10112-1.86431-11.05557-5.12998-.62724-.69331-1.11591-1.51196-1.60724-2.18866,.60834-1.88685,2.08835-2.01231,3.39429-1.99699,3.759,.04397,7.55275-.00035,11.26124,.51027,2.66629,.36703,5.05907,.17529,7.48588-.85563,4.71795-2.00415,9.57192-3.72545,14.15774-5.99242,4.28689-2.11921,8.38109-4.66662,12.40815-7.2614,3.49572-2.25241,6.74894-4.87766,10.16241-7.26211,5.97011-4.17038,10.07625-10.0107,14.30668-15.75304,3.46801-4.70742,6.95638-9.40025,10.4868-14.06085,.76975-1.01622,1.4775-2.33698,3.41376-1.97937l-1.25317,4.42145,.77572,.46405c2.01539-1.9494,4.03078-3.89881,6.04618-5.84818l.70891,.32005c-.0687,1.4998-.13739,2.99956-.20853,4.5526,2.56935,.43422,3.68-1.03938,4.4774-2.73817,1.49717-3.18953,2.81893-6.4611,4.29306-9.66196,.40053-.86968,1.08652-1.60787,1.6407-2.40675l.76208,.11947,1.05104,3.69897c2.35887,.81181,3.49169,.28478,4.10064-1.95774,.69282-2.55137,1.31675-5.12247,2.06231-7.65802,.27729-.943,.82458-1.80661,1.24299-2.70813l.73262-.043c.84897,1.35469,1.69798,2.70938,2.51977,4.02069,4.48244-.3586,5.23598-1.68969,4.04058-6.35399,.18069-1.901,.41484-3.39999,.44915-4.9035,.10969-4.80654,3.61232-8.20568,8.6312-8.29007,1.73922,2.56299-.28298,4.52499-6.60058,6.21506-.19644,3.61632,2.08903,5.86371,4.28833,8.0674,4.39451-.58594,5.45993-2.57063,3.80771-6.56733-.4411-1.06694-.69355-2.21188-1.04496-3.36139,2.35077-.74703,3.08794,.81698,4.13911,1.65702,1.11108,.88783,2.38039,1.38049,3.51476,.51881,.99838-.75842,1.77511-1.9212,2.36141-3.05454,.23679-.45773-.26022-1.32284-.48286-1.9824-.20323-.60211-.48697-1.17702-.76169-1.82648,4.37018-.91246,8.26163,1.5426,12.31983,.55659,.71435-5.15053-3.64497-6.62688-6.8281-9.67396,1.31161-.34249,2.08345-.79382,2.74825-.67006,1.88209,.35035,3.69483,1.10378,5.58167,1.39123,3.06377,.46668,6.15862,.80917,9.25246,.96697,1.71895,.08768,2.00541-.323,2.92934-2.13424-.46474-.44402-1.00488-.89802-1.46739-1.42076-.40193-.45426-.71608-.98625-1.20189-1.6712,.63769-.25584,1.10396-.63939,1.43019-.54399,4.22278,1.23493,8.40431,.57954,12.5793-.20793,1.6807-.31704,3.282-.83459,3.89735-3.05395-.82512-.67605-1.69837-1.39156-2.89388-2.37112,2.08002-.834,3.95362-.54866,5.50735,.11674,4.75662,2.03717,9.30196,.53581,13.83859-.56938,1.48631-.3621,2.76176-1.58978,4.13338-2.42265l-.152-.92401c-1.9657-.46492-3.93139-.92982-5.89711-1.39475,.00778-.20077,.01556-.40158,.02333-.60235,.46678-.14072,.94013-.42051,1.39927-.3989,2.39245,.11274,4.77963,.33403,7.17172,.45796,4.49846,.23315,8.7194-.98801,12.81748-2.65748,.78686-.32053,1.36171-1.16155,2.48754-2.16726-3.73552-.77133-6.86207-1.41689-10.39931-2.14727,.6469-.38561,.93925-.71263,1.22455-.70655,3.19626,.06789,6.39935,.08219,9.58459,.32303,2.98737,.22581,5.5841-.63373,8.64852-2.18845-1.48339-.96858-2.49421-1.62864-3.63517-2.37367,1.19524-2.06875,2.99708-2.50156,4.96138-2.14005,4.28165,.78797,7.834-.56566,11.21718-3.49198-1.06372-.82267-2.03803-1.57621-3.07091-2.37505-2.07201,.09628-4.15734,.19314-6.24265,.29001-.05062-.2743-.10122-.54857-.15182-.82288,.72764-.23265,1.44068-.59028,2.18536-.67729,4.2102-.49181,8.44234-.81753,12.6368-1.41266,2.02103-.28673,3.96226-1.10766,5.29085-2.8243l-.25263-.48809c-1.085-.00001-2.16996,.00002-3.25493,.00002-2.21625,0-4.43263,.01468-6.64869-.00596-1.19825-.01118-2.42452-.27233-3.58932-.09678-8.60377,1.29695-17.07705,.6533-25.47986-1.4694-4.57149-1.15485-9.07089-1.17235-13.75287-.05401-3.99824,.95499-8.23638,.86755-12.3496,1.38953-4.26761,.5415-8.60439,.90465-12.74991,1.97154-11.41246,2.93712-20.98605,9.1565-29.44615,17.24818-2.5986,2.48547-5.52652,4.62611-8.13149,7.10554-1.94792,1.85413-3.61945,3.99867-5.41439,6.01429-.16145,.16622-.32256,.3321-.48369,.49768-.00003-.00026-.03258-.03334-.03258-.03334l.87772-.90424Zm3.72919,4.39446c.72432-.68311,1.44862-1.3662,2.17292-2.04928-.28033-.19442-.56067-.38884-.84101-.58328-.43018,.89077-.86037,1.78153-1.2899,2.67224,0,0-.04199-.03968-.04201-.03968Zm186.15857-199.57487l.04176,.04561c2.51468-1.30414,4.92609-2.90629,7.57468-3.82391,2.38344-.82577,3.68668-2.23276,4.68962-5.03575-1.28968-.06375-2.32282-.33293-3.24052-.11526-1.97025,.46735-3.88094,1.18575-5.816,1.80136-.08639-.18064-.17274-.36128-.2591-.54193,.70361-.46622,1.38579-.96937,2.11444-1.39245,3.65614-2.12291,7.40355-4.10271,10.94736-6.39775,1.3166-.85267,2.26994-2.3549,3.19595-3.69438,.74704-1.08062,.49166-2.13139-1.00394-2.80061-7.41113,2.56245-13.78758,7.43703-20.97939,10.68707,.0475-.34293,.16478-.55712,.34446-.6801,5.86259-4.01296,11.76761-7.96534,17.57772-12.05268,1.86797-1.3141,3.56589-2.90344,5.17845-4.52877,.55005-.55441,.60042-1.60461,.87911-2.42829-.16071-.17013-.32138-.34024-.48209-.51036-.97091,.16417-2.05383,.10715-2.89279,.53195-3.11973,1.57966-6.22848,3.20467-9.20882,5.02912-2.81586,1.72377-5.46516,3.71966-8.18769,5.59586-.15409-.19702-.30815-.39406-.46223-.59109,1.79994-1.64344,3.55646-3.33772,5.40832-4.92039,4.73671-4.04816,9.54534-8.01248,14.26355-12.08186,1.88483-1.62567,3.00105-3.7671,3.81386-6.26078-3.87479-1.09375-3.21915,3.20999-5.4733,3.92571-.28891-.77461-.54745-1.46778-1.06757-2.86231-4.50567,7.05895-11.63528,10.28011-17.38548,15.24857,.2-.98679,.62276-1.73721,1.18377-2.36383,3.14377-3.51135,6.32462-6.98946,9.48543-10.48557,2.73208-3.02189,5.4921-6.01989,8.16143-9.09642,.99852-1.15087,1.86785-2.48031,.32167-4.49792-1.07448,.42436-2.49867,.61845-3.39329,1.4106-2.48118,2.1969-4.7325,4.65235-7.09517,6.98483-.75167,.74209-1.56787,1.41885-2.35453,2.1255-.16457-.14127-.32911-.28253-.49365-.4238,1.74712-4.44657,6.20441-7.48646,6.94849-12.59252-.85492-.02987-1.58457,.04833-2.06984,.43402-1.2431,.98803-2.50271,2.00532-3.53095,3.20381-2.64789,3.08629-5.06878,6.37079-7.77143,9.40595-5.18963,5.82818-8.62682,12.55521-10.75708,20.00643-.36264,1.2685-.80807,2.47204-2.26203,3.15924-.3625-2.23336,1.58647-4.19196-.31904-6.71189-2.70274,4.54574-3.98323,9.26954-5.71193,13.75263,2.03693,2.06866,1.7388,4.07112,.55878,6.12225-.23848,.41459-.39169,.88425-.66423,1.27232-3.39818,4.83943-7.48628,9.01476-11.97104,12.86735-2.00229,1.72002-3.9239,3.75043-5.22228,6.01784-1.56946,2.74079-2.32341,5.93517-3.64779,8.83388-1.10948,2.42845-2.93235,4.58403-3.74428,7.08595-3.15393,9.71872-6.06581,19.51691-8.98929,29.30896-.89346,2.99264-.53295,5.98806,.73375,9.3744,1.68079,.13193,3.52867,.24815,5.37028,.42849,2.60224,.25474,5.34721,.13204,7.75477,.9674,2.09283,.72616,4.01418,1.25981,6.23097,1.1104,1.79371-.12086,3.61491,.16704,5.42393,.27363,.00586,.24195,.01174,.48392,.01763,.7259-1.1749,.41932-2.33957,.87079-3.52753,1.24903-1.21153,.38579-2.75495,.37569-2.52388,2.75084,1.81535-.52187,3.49493-.90008,5.09798-1.48737,3.32055-1.21647,6.22649-.77085,8.78565,1.87656-.26138,.7131-.52057,1.42025-.76426,2.08503,1.3614,1.70926,3.01917,2.24088,4.98647,1.93882,4.44245-.68206,7.63679,1.42233,10.35619,4.40247,.11543,1.07953,.20791,1.94432,.3099,2.89799,2.38991,1.47985,4.08499,4.97486,8.08672,2.1504,.22194-2.41056,.46759-5.0789,.66666-7.24136-.45254-1.32482-.7413-2.17013-1.02546-3.00204,1.11243-.56633,1.95204-.99379,2.79167-1.42122,.00624,.08835,.0125,.17667,.01874,.26502,1.11624-.09391,2.23245-.18783,3.10931-.2616,.7471-1.94022,1.34368-3.48965,2.11339-5.48862-.34917-2.55302-2.27409-4.47767-4.49896-6.26052-.86939-.69667-1.52281-1.66281-2.27459-2.50623l-.03959,.03784c1.88683,.77741,3.77365,1.55481,6.11038,2.51759,.1545,.17275,.66273,.74095,1.45142,1.62267,.84871-1.22669,1.53695-2.22144,2.34083-3.38335,.50048-.0227,1.15475-.19108,1.73839-.05546,2.95024,.68543,5.88754,1.42916,8.81933,2.1911,5.47418,1.42274,10.93386,2.90236,16.41931,4.27962,.87597,.21992,1.85458,.03081,2.78576,.03081l.1641-1.11432c-4.99578-1.78429-10.31115-2.59607-15.36518-4.33793-.24487-.78774-.4767-1.53353-.75594-2.43193-.91243-.35976-1.88234-.70701-2.82347-1.11983-2.76769-1.21395-5.96997-1.93229-8.17214-3.81529-2.76997-2.36856-5.69239-4.32542-8.85221-6.01497-1.00813-.53906-2.12513-.87454-3.19229-1.30318-.02609,.06024-.05218,.1205-.07827,.18077-1.22878-.83832-2.45755-1.67661-3.86203-2.63482,.4791-.13576,.68083-.26083,.7625-.20628,3.59456,2.40256,7.54528,1.98002,11.52037,1.52295,.84766-.09743,1.75429-.03634,2.58745,.15412,4.27963,.97868,8.56618,1.9404,12.80944,3.06257,8.61763,2.27907,17.20951,4.65542,25.81074,6.99637,2.02548,.55127,4.04584,1.12135,6.41835,1.77986,.11722-1.45296,.18917-2.34476,.28182-3.49343-3.30035-.94216-6.40362-1.91557-9.5524-2.70838-6.17925-1.55584-12.37459-3.05094-18.58113-4.49421-4.27164-.99335-8.57768-1.83843-12.85644-2.80256-.53951-.12159-1.00658-.56475-1.5072-.85888,.07816-.14806,.15631-.29609,.23447-.44415,.9151-.04636,1.83022-.09271,2.77858-.14074,.25877-.99856,.47632-1.83796,.70631-2.7253-.36443-.58079-.71948-1.14665-1.23996-1.97616,.89682-.27404,1.54659-.64264,2.19837-.64627,9.75864-.0545,19.52299,.12709,29.08617,2.28138,6.5356,1.47223,12.96707,3.40458,19.45731,5.08397,.66856,.17301,1.42058,.02322,2.13389,.02322,.08082-.22555,.16164-.45109,.24246-.67661-.48144-.36389-.91234-.86508-1.45431-1.06457-1.34482-.49499-2.76259-.79029-4.11205-1.27459-11.11928-3.9905-22.51274-6.53728-34.37021-6.92407-3.65828-.11933-7.35968-.43285-10.93585-1.16967-4.51158-.92951-8.99962-1.20698-13.56661-.97244-.73175,.03757-1.48342-.31305-2.22589-.48421,.00413-.23867,.00826-.47733,.01242-.716,3.63593-2.02468,8.41666-.48714,11.77894-3.34393,.04351-.95818,.0819-1.80394,.1195-2.63238,4.86524-.79993,9.57252-1.57145,14.27892-2.34839,4.69454-.77495,9.50894-1.00887,14.21831-2.73371-.87937-1.65476-1.86931-1.2121-2.88368-1.02383-3.0539,.56674-6.11826,1.08094-9.18622,1.56732-6.36754,1.00957-12.73752,2.00482-19.11379,2.95685-.75893,.1133-1.56717-.04577-2.3461-.1348-2.58464-.29536-5.16375-.83835-7.74979-.86819-2.8609-.03297-5.72607,.41004-8.59247,.59939-.30369,.02006-.62795-.27097-.94268-.41765-.02788-.22197-.05573-.44395-.0836-.66592,5.71608-1.24645,11.78652-1.35726,17.45798-4.60189-3.11074-3.54954-7.08322-2.62082-10.72642-3.26798,.35532-.53495,.50247-.92971,.78493-1.15419,2.24654-1.78562,4.47937-3.59247,6.79071-5.29173,6.11196-4.49337,12.26369-8.93256,18.39293-13.40246,.81805-.59658,1.79968-1.17216,.80321-2.69144-.64218,.33645-1.28192,.59306-1.83517,.975-2.36402,1.63215-4.72219,3.27416-7.04665,4.96197-7.4945,5.44175-14.96321,10.91903-22.47426,16.33778-.69594,.50209-1.62158,.68576-2.48924,1.03698-.75249-1.19581-1.2816-2.03669-1.85347-2.94545,2.39966-1.67826,4.57217-3.19766,6.97701-4.87954-4.17108-1.52713-6.93786,.7412-10.04152,1.87051,6.17287-4.33068,14.03394-6.37322,18.05272-13.75141-1.0826-.2766-2.13611-.43998-3.11692-.24243-2.01116,.40507-3.98332,1.0037-5.97155,1.52265Zm-181.12742,151.54148c-1.80644-.56401-3.59744-.26818-5.18262,.61219-3.41602,1.89715-6.75174,3.94153-10.08365,5.98542-.75265,.46169-1.35558,1.16744-2.02744,1.76086,.0798,.09125,.15959,.18253,.23937,.27381,5.63278-2.85111,11.26557-5.70222,17.05433-8.63228Zm5.84364-10.78428c.63492,1.3594,.97682,2.09148,1.48992,3.19013,.87962-1.17476,1.53014-2.04357,2.18067-2.91237-.13633-.23468-.27265-.46937-.409-.70405-.9612,.12563-1.92242,.25126-3.26159,.42629Z"/><path d="M188.50479,351.75264c3.22894-1.87357,6.37358-4.00748,10.29-4.27388,6.36633-.433,12.74557-.67998,19.10952-1.14115,1.47689-.10703,2.91342-.76326,4.3699-1.16182,2.28281-.62466,4.56713-1.24379,6.85022-1.86748,3.5265-.96339,7.05496-1.91978,10.57719-2.89855,1.06371-.29559,2.10948-.6557,3.16345-.98626,.08999,.26054,.17996,.52108,.26995,.78162-2.96715,1.15611-5.85405,2.63763-8.91986,3.39369-4.86302,1.19933-9.82151,1.89352-14.63341,3.47662-2.70958,.89144-5.8524,.43795-8.7953,.65474-4.29824,.31665-8.6206,.4983-12.87584,1.12401-2.06676,.30388-4.00633,1.48052-5.99997,2.27093-1.05196,.41709-2.0964,.85322-3.14425,1.2808-.08719-.21776-.1744-.43551-.26159-.65327Z"/><path d="M325.93927,228.77865c-1.3395,1.03174-2.58221,1.98895-3.9697,3.05766,.63978,.59665,1.06087,.98938,1.48199,1.38211-.04322,.16674-.08647,.33349-.12969,.50023-1.28948-.16141-2.57893-.32283-3.86727-.4841,.52578-4.28062,3.44222-6.29036,6.48468-4.45591Z"/><path d="M338.30788,300.22737c-2.18027-.92687-7.48519,.03927-6.54081-2.78062,.1186-.24771,.23721-.49545,.3558-.7432,.21771-1.11755,2.8103,.75891,6.1438,3.56311,.00159-.00146,.04121-.03929,.04121-.03929Z"/><path d="M332.72193,236.52812c.00029,.00013-.04146-.04548-.04146-.04548"/></svg>